<?xml version="1.0" encoding="utf-8"?>
<!-- Generator: Adobe Illustrator 16.0.0, SVG Export Plug-In . SVG Version: 6.00 Build 0)  -->
<!DOCTYPE svg PUBLIC "-//W3C//DTD SVG 1.1//EN" "http://www.w3.org/Graphics/SVG/1.1/DTD/svg11.dtd">
<svg version="1.1" id="Layer_1" xmlns="http://www.w3.org/2000/svg" xmlns:xlink="http://www.w3.org/1999/xlink" x="0px" y="0px"
	 width="130px" height="130px" viewBox="0 0 130 130" enable-background="new 0 0 130 130" xml:space="preserve">
<g>
	<g>
		<polygon fill="#C67239" points="51.324,6.749 26.776,20.922 26.775,51.172 51.324,37 		"/>
		<polyline fill="#BC5326" points="51.324,6.749 26.776,20.922 26.775,51.172 		"/>
		<polygon fill="#752E07" points="26.776,20.922 24.73,19.741 24.73,49.992 26.768,51.169 		"/>
		<polygon fill="#DB8952" points="51.324,6.749 49.278,5.568 24.73,19.741 26.776,20.922 		"/>
	</g>
	<g>
		<g>
			<g>
				<polygon fill="#FFD348" points="82.695,85.261 82.77,101.124 75.809,105.141 75.809,89.238 				"/>
				<polygon fill="#FFAA45" points="68.924,101.165 75.809,105.141 75.809,89.238 68.849,85.218 				"/>
				<polyline fill="#CC861F" points="75.809,89.238 68.849,85.218 68.924,101.165 				"/>
			</g>
			<g>
				<polygon fill="#9FA4A5" points="48.303,121.064 75.848,105.162 89.621,113.112 62.075,129.015 				"/>
				<polygon fill="#FFAA45" points="68.924,101.165 68.924,109.116 82.77,117.109 82.77,109.137 				"/>
				<polygon fill="#FFD348" points="89.582,105.141 89.582,113.092 82.77,117.109 82.77,109.137 				"/>
				<polygon fill="#FF8B00" points="82.77,101.124 89.582,105.141 82.77,109.137 75.847,105.141 				"/>
			</g>
		</g>
		<g>
			<g>
				<polygon fill="#FFD348" points="62.076,97.21 62.151,113.07 55.188,117.087 55.188,101.185 				"/>
				<polygon fill="#FFAA45" points="48.303,113.134 55.188,117.108 55.188,101.207 48.229,97.187 				"/>
				<polyline fill="#FF8B00" points="55.188,101.207 48.229,97.187 48.303,113.134 				"/>
			</g>
			<g>
				<polygon fill="#FFAA45" points="48.303,113.134 48.303,121.085 62.151,129.08 62.151,121.106 				"/>
				<polygon fill="#FFD348" points="68.962,117.108 68.962,125.06 62.151,129.08 62.151,121.106 				"/>
				<polygon fill="#FFD348" points="68.924,109.116 82.77,117.109 82.77,114.38 68.924,106.385 				"/>
				<polygon fill="#FFAA45" points="82.77,117.109 89.582,113.092 89.582,110.361 82.77,114.38 				"/>
				<polygon fill="#FFD348" points="48.303,121.085 62.151,129.08 62.151,126.35 48.303,118.354 				"/>
				<polygon fill="#FFAA45" points="62.151,129.08 68.962,125.06 68.962,122.331 62.151,126.35 				"/>
				<polygon fill="#FF8B00" points="62.151,113.092 68.962,117.108 62.151,121.106 55.226,117.108 				"/>
			</g>
		</g>
	</g>
	<g>
		<g>
			<g>
				<polygon fill="#752E07" points="59.204,62.812 96.901,41.043 96.901,87.227 59.204,108.992 				"/>
				<polyline fill="#4F210B" points="59.204,108.992 59.204,62.812 96.901,41.043 				"/>
				<polygon fill="#DB611D" points="21.5,41.043 59.204,62.812 59.204,108.992 21.5,87.227 				"/>
				<polyline fill="#C43205" points="21.5,41.043 59.204,62.812 59.204,108.992 				"/>
				<polygon fill="#DB8952" points="21.5,41.043 59.204,19.277 96.901,41.043 59.204,62.812 				"/>
				<polyline fill="#C67239" points="96.901,41.043 59.204,62.812 21.5,41.043 				"/>
			</g>
		</g>
		<g>
			<g>
				<polygon fill="#C67239" points="79.407,38.929 108.5,22.13 108.5,57.772 79.407,74.57 				"/>
				<polyline fill="#BC5326" points="79.407,74.57 79.407,38.929 108.5,22.13 				"/>
				<polygon fill="#964117" points="50.309,22.13 79.407,38.929 79.407,74.57 50.309,57.772 				"/>
				<polyline fill="#752E07" points="50.309,22.13 79.407,38.929 79.407,74.57 				"/>
				<polygon fill="#DB8952" points="50.309,22.13 79.407,5.332 108.5,22.13 79.407,38.929 				"/>
				<polyline fill="#C67239" points="108.5,22.13 79.407,38.929 50.309,22.13 				"/>
				<polygon fill="#BC5326" points="79.407,38.929 87.317,34.362 87.317,12.684 87.307,12.689 78.078,7.351 75.324,8.852 
					75.313,8.846 75.313,8.858 75.309,8.86 75.313,8.862 75.313,9.194 74.016,8.444 68.932,11.379 68.932,32.881 				"/>
			</g>
			<g>
				<g>
					<polygon fill="#070606" points="83.349,50.886 83.349,58.091 89.621,54.471 89.576,47.293 					"/>
					<polygon fill="#070606" points="98.286,42.204 98.286,49.408 104.558,45.789 104.514,38.61 					"/>
				</g>
				<g>
					<polyline fill="#333232" points="83.349,58.091 89.621,54.471 89.576,47.293 					"/>
					<polyline fill="#333232" points="98.286,49.408 104.558,45.789 104.514,38.61 					"/>
				</g>
			</g>
		</g>
	</g>
	<g>
		<polygon fill="#FFAA45" points="86.485,62.748 98.206,53.546 100.248,58.731 		"/>
		<polygon fill="#FFD348" points="98.206,53.546 103.705,52.757 100.248,58.731 		"/>
	</g>
	<g>
		<polygon fill="#FF9100" points="76.621,20.005 76.621,6.589 78.811,5.309 78.811,18.725 		"/>
		<polygon fill="#DB611D" points="76.621,20.005 76.621,6.589 68.932,2.15 68.932,15.567 		"/>
		<polyline fill="#C43205" points="76.621,20.005 76.621,6.589 68.932,2.15 		"/>
		<g>
			<polygon fill="#FF9100" points="78.811,5.318 76.621,6.599 68.929,2.162 71.207,0.92 			"/>
			<polyline fill="#F76116" points="78.811,5.318 76.621,6.599 68.929,2.162 			"/>
		</g>
	</g>
	<g>
		<polygon fill="#FF9100" points="84.655,24.642 84.655,8.34 87.317,6.785 87.317,23.086 		"/>
		<polygon fill="#DB611D" points="84.655,24.642 84.655,8.34 75.313,2.947 75.313,19.25 		"/>
		<polyline fill="#C43205" points="84.655,24.642 84.655,8.34 75.313,2.947 		"/>
		<g>
			<polygon fill="#FF9100" points="87.317,6.796 84.655,8.352 75.309,2.96 78.078,1.452 			"/>
			<polyline fill="#F76116" points="87.317,6.796 84.655,8.352 75.309,2.96 			"/>
		</g>
	</g>
</g>
</svg>
